<?xml version="1.0" encoding="utf-8"?>
<!-- Generator: Adobe Illustrator 22.0.1, SVG Export Plug-In . SVG Version: 6.00 Build 0)  -->
<svg version="1.1" id="レイヤー_1" xmlns="http://www.w3.org/2000/svg" xmlns:xlink="http://www.w3.org/1999/xlink" x="0px"
	 y="0px" viewBox="0 0 512 512" style="enable-background:new 0 0 512 512;" xml:space="preserve">
<style type="text/css">
	.st0{fill:#2196F3;}
</style>
<path class="st0" d="M383.8,344.4c-16,0-31,5.3-41.7,16l-153-88.4c1.1-5.3,2.1-9.6,2.1-14.9c0-5.3-1.1-9.6-2.1-14.9L340,154.8
	c11.8,10.7,26.7,17,43.9,17c35.3,0,64.2-28.8,64.2-63.9c0-35.2-28.9-63.9-64.2-63.9s-64.2,28.8-64.2,63.9c0,5.3,1.1,9.6,2.1,14.9
	L171,210.2c-11.8-10.7-26.7-17-43.9-17C91.8,193.2,64,222,64,257.1c0,35.2,28.9,63.9,64.2,63.9c17.1,0,32.1-6.4,43.9-17L324,392.4
	c-1.1,4.3-2.1,8.5-2.1,13.8c0,34.1,27.8,61.8,62,61.8s62-27.7,62-61.8S418.1,344.4,383.8,344.4L383.8,344.4z"/>
</svg>
